# xmcd
#
# Track frame offsets:
# 150
# 29762
# 49195
# 68910
# 112450
# 137102
# 157532
# 178765
# 222660
# 236482
# 252300
#
# Disc length: 3642 seconds
#
#
# Revision: 0
# Processed by: cddbd v1.5PL3 Copyright (c) Steve Scherf et al.
# Submitted via: FreeRIP 2.00 
#
DISCID=a80e380b
DTITLE=Gary Brown - Live at Bourbom Street
DYEAR=2003
DGENRE=Blues
TTITLE0=All Nigth Long
TTITLE1=In a Little Spanish Town
TTITLE2=Just a Gigolo
TTITLE3=Baker Street
TTITLE4=Nocturnal Woman
TTITLE5=I´ll See You There
TTITLE6=My Heaven
TTITLE7=Purple Rain
TTITLE8=Sleepy Time Down South
TTITLE9=The Blues is All Right
TTITLE10=What Does it Take
EXTD=
EXTT0=
EXTT1=
EXTT2=
EXTT3=
EXTT4=
EXTT5=
EXTT6=
EXTT7=
EXTT8=
EXTT9=
EXTT10=
PLAYORDER=
